<?xml version="1.0" standalone="no"?>
<!DOCTYPE svg PUBLIC "-//W3C//DTD SVG 20010904//EN"
 "http://www.w3.org/TR/2001/REC-SVG-20010904/DTD/svg10.dtd">
<svg version="1.0" xmlns="http://www.w3.org/2000/svg"
 width="240.000000pt" height="240.000000pt" viewBox="0 0 240.000000 240.000000"
 preserveAspectRatio="xMidYMid meet">

<g transform="translate(0.000000,240.000000) scale(0.100000,-0.100000)"
fill="#000000" stroke="none">
<path d="M0 1200 l0 -1200 1200 0 1200 0 0 1200 0 1200 -1200 0 -1200 0 0
-1200z m703 1039 c310 -47 567 -334 567 -632 l0 -61 69 75 c48 52 90 85 139
112 111 59 166 67 491 67 l284 0 -7 -52 c-22 -177 -123 -326 -274 -406 -104
-56 -149 -62 -434 -62 -159 0 -259 -4 -263 -10 -3 -5 -3 -174 1 -375 l7 -364
102 107 c115 121 115 121 156 29 19 -42 23 -70 23 -142 1 -119 -30 -191 -115
-269 -75 -70 -146 -98 -249 -98 -103 0 -174 28 -249 98 -106 98 -144 235 -102
372 11 38 30 80 40 93 l20 24 104 -103 104 -103 6 323 c4 178 7 415 7 528 0
193 -1 208 -22 250 -17 33 -35 51 -68 68 -41 21 -57 22 -240 22 -215 0 -268 8
-368 59 -150 76 -255 230 -277 409 l-7 52 242 0 c132 0 274 -5 313 -11z"/>
</g>
</svg>
